<svg width="100" height="101" viewBox="0 0 100 101" fill="none" xmlns="http://www.w3.org/2000/svg">
<path d="M96.9655 18.0027C100.87 14.0983 100.87 7.75754 96.9655 3.85312C93.0611 -0.0513002 86.7203 -0.0513002 82.8159 3.85312L49.925 36.7752L17.003 3.88435C13.0986 -0.0200653 6.75778 -0.0200653 2.85336 3.88435C-1.05106 7.78877 -1.05106 14.1295 2.85336 18.034L35.7754 50.9248L2.8846 83.8469C-1.01982 87.7513 -1.01982 94.0921 2.8846 97.9965C6.78902 101.901 13.1298 101.901 17.0342 97.9965L49.925 65.0744L82.8471 97.9652C86.7515 101.87 93.0923 101.87 96.9967 97.9652C100.901 94.0608 100.901 87.72 96.9967 83.8156L64.0747 50.9248L96.9655 18.0027Z" fill="white"/>
</svg>
